<svg width="143" height="29" viewBox="0 0 143 29" fill="none" xmlns="http://www.w3.org/2000/svg">
<path d="M0.524414 2.05176H23.7334V6.66699H5.78711V13.457H21.0273V17.79H5.78711V28H0.524414V2.05176ZM30.7891 5.7373C30.3021 5.7373 29.8594 5.6709 29.4609 5.53809C29.0736 5.39421 28.7415 5.20605 28.4648 4.97363C28.1882 4.73014 27.9723 4.45345 27.8174 4.14355C27.6735 3.82259 27.6016 3.48503 27.6016 3.13086C27.6016 2.76562 27.6735 2.42806 27.8174 2.11816C27.9723 1.7972 28.1882 1.52051 28.4648 1.28809C28.7415 1.05566 29.0736 0.873047 29.4609 0.740234C29.8594 0.596354 30.3021 0.524414 30.7891 0.524414C31.2871 0.524414 31.7298 0.596354 32.1172 0.740234C32.5156 0.873047 32.8532 1.05566 33.1299 1.28809C33.4066 1.52051 33.6169 1.7972 33.7607 2.11816C33.9157 2.42806 33.9932 2.76562 33.9932 3.13086C33.9932 3.48503 33.9157 3.82259 33.7607 4.14355C33.6169 4.45345 33.4066 4.73014 33.1299 4.97363C32.8532 5.20605 32.5156 5.39421 32.1172 5.53809C31.7298 5.6709 31.2871 5.7373 30.7891 5.7373ZM28.332 8.41016H33.2461V28H28.332V8.41016ZM42.5098 12.0957H37.7783V8.41016H42.5098V2.31738H47.4238V8.41016H52.1553V12.0957H47.4238V28H42.5098V12.0957ZM57.1191 2.05176H62.3818V8.8252H78.5186V2.05176H83.7979V28H78.5186V13.3242H62.3818V28H57.1191V2.05176ZM90.5547 8.39355H95.4521V17.9561C95.4521 18.8636 95.5518 19.6937 95.751 20.4463C95.9502 21.1878 96.2878 21.8242 96.7637 22.3555C97.2507 22.8867 97.8926 23.3018 98.6895 23.6006C99.4974 23.8883 100.499 24.0322 101.694 24.0322C102.259 24.0322 102.829 23.9714 103.404 23.8496C103.991 23.7279 104.55 23.5618 105.081 23.3516C105.612 23.1302 106.105 22.8701 106.559 22.5713C107.023 22.2725 107.422 21.946 107.754 21.5918V8.39355H112.668V28H107.754V26.3232C106.548 27.0426 105.336 27.5573 104.118 27.8672C102.901 28.1771 101.744 28.332 100.648 28.332C98.8555 28.332 97.3171 28.1162 96.0332 27.6846C94.7604 27.2529 93.7145 26.6276 92.8955 25.8086C92.0876 24.9785 91.4954 23.9658 91.1191 22.7705C90.7428 21.5641 90.5547 20.1917 90.5547 18.6533V8.39355ZM118.777 0.458008H123.691V10.2529C124.123 9.9541 124.632 9.67188 125.219 9.40625C125.805 9.14062 126.436 8.9082 127.111 8.70898C127.786 8.50977 128.484 8.35482 129.203 8.24414C129.923 8.1224 130.642 8.06152 131.361 8.06152C133.021 8.06152 134.543 8.30501 135.927 8.79199C137.321 9.27897 138.517 9.96517 139.513 10.8506C140.509 11.736 141.284 12.7985 141.837 14.0381C142.401 15.2666 142.684 16.6279 142.684 18.1221C142.684 19.6826 142.39 21.0938 141.804 22.3555C141.217 23.6061 140.404 24.6797 139.363 25.5762C138.334 26.4616 137.105 27.1478 135.678 27.6348C134.261 28.1107 132.723 28.3486 131.062 28.3486C130.354 28.3486 129.651 28.3044 128.954 28.2158C128.268 28.1273 127.604 28.0055 126.962 27.8506C126.331 27.6956 125.733 27.513 125.169 27.3027C124.616 27.0814 124.123 26.8434 123.691 26.5889V28H118.777V0.458008ZM123.691 21.8408C124.189 22.2393 124.715 22.5768 125.269 22.8535C125.822 23.1302 126.386 23.3571 126.962 23.5342C127.537 23.7113 128.118 23.8441 128.705 23.9326C129.292 24.0101 129.862 24.0488 130.415 24.0488C131.544 24.0488 132.546 23.8994 133.42 23.6006C134.305 23.2907 135.047 22.8701 135.645 22.3389C136.253 21.8076 136.718 21.1823 137.039 20.4629C137.36 19.7435 137.521 18.9632 137.521 18.1221C137.521 17.3363 137.36 16.5947 137.039 15.8975C136.729 15.2002 136.275 14.5915 135.678 14.0713C135.091 13.54 134.377 13.125 133.536 12.8262C132.706 12.5163 131.771 12.3613 130.73 12.3613C130.066 12.3613 129.402 12.4277 128.738 12.5605C128.074 12.6823 127.432 12.8594 126.812 13.0918C126.204 13.3242 125.628 13.6064 125.086 13.9385C124.555 14.2705 124.09 14.6413 123.691 15.0508V21.8408Z" fill="#34C002"/>
</svg>
