<svg width="539" height="572" viewBox="0 0 539 572" fill="none" xmlns="http://www.w3.org/2000/svg">
<g clip-path="url(#clip0)">
<path d="M539 515.078C539 532.439 418.341 572 269.5 572C120.659 572 0 532.439 0 515.078C0 497.717 120.659 509.131 269.5 509.131C418.341 509.131 539 497.717 539 515.078Z" fill="#3F3D56"/>
<path opacity="0.1" d="M539 515.078C539 532.439 418.341 572 269.5 572C120.659 572 0 532.439 0 515.078C0 497.717 120.659 509.131 269.5 509.131C418.341 509.131 539 497.717 539 515.078Z" fill="black"/>
<path d="M76.7508 283.992C83.0127 283.992 88.089 279.047 88.089 272.948C88.089 266.848 83.0127 261.903 76.7508 261.903C70.4889 261.903 65.4126 266.848 65.4126 272.948C65.4126 279.047 70.4889 283.992 76.7508 283.992Z" fill="#086972"/>
<path d="M126.464 374.897C132.726 374.897 137.803 369.952 137.803 363.853C137.803 357.753 132.726 352.808 126.464 352.808C120.202 352.808 115.126 357.753 115.126 363.853C115.126 369.952 120.202 374.897 126.464 374.897Z" fill="#086972"/>
<path d="M88.089 351.959C94.3509 351.959 99.4272 347.014 99.4272 340.914C99.4272 334.814 94.3509 329.869 88.089 329.869C81.8271 329.869 76.7508 334.814 76.7508 340.914C76.7508 347.014 81.8271 351.959 88.089 351.959Z" fill="#086972"/>
<path d="M91.7054 497.68C91.5053 497.361 86.7858 489.685 85.1497 473.746C83.6489 459.122 84.6139 434.472 97.7373 400.089C122.599 334.95 92.0078 282.393 91.6952 281.87L93.2044 281.017C93.2836 281.15 101.177 294.55 105.841 315.887C112.002 344.176 109.759 373.59 99.3727 400.681C74.5533 465.708 93.0051 496.491 93.1942 496.795L91.7054 497.68Z" fill="#34C002"/>
<path d="M81.9838 278.895C79.5689 278.895 77.2081 278.197 75.2001 276.89C73.1921 275.583 71.6271 273.726 70.7029 271.552C69.7787 269.379 69.537 266.987 70.0081 264.68C70.4792 262.373 71.6422 260.254 73.3498 258.59C75.0575 256.927 77.2331 255.794 79.6017 255.335C81.9703 254.876 84.4254 255.112 86.6565 256.012C88.8877 256.912 90.7947 258.437 92.1364 260.392C93.4781 262.348 94.1942 264.648 94.1942 267.001C94.1906 270.154 92.9029 273.177 90.6138 275.407C88.3247 277.637 85.2211 278.891 81.9838 278.895ZM81.9838 256.806C79.9138 256.806 77.8904 257.403 76.1692 258.524C74.4481 259.644 73.1066 261.236 72.3145 263.099C71.5224 264.962 71.3151 267.012 71.7189 268.989C72.1228 270.967 73.1196 272.784 74.5833 274.209C76.047 275.635 77.9118 276.606 79.942 277C81.9722 277.393 84.0766 277.191 85.989 276.419C87.9014 275.648 89.536 274.341 90.686 272.665C91.836 270.988 92.4499 269.017 92.4499 267.001C92.4467 264.298 91.343 261.706 89.3809 259.795C87.4189 257.884 84.7586 256.809 81.9838 256.806Z" fill="#34C002"/>
<path d="M117.743 318.825C124.005 318.825 129.081 313.88 129.081 307.78C129.081 301.681 124.005 296.736 117.743 296.736C111.481 296.736 106.405 301.681 106.405 307.78C106.405 313.88 111.481 318.825 117.743 318.825Z" fill="#34C002"/>
<path d="M93.322 346.861C90.907 346.861 88.5463 346.164 86.5383 344.857C84.5303 343.55 82.9653 341.692 82.0411 339.519C81.117 337.345 80.8751 334.954 81.3463 332.647C81.8174 330.339 82.9804 328.22 84.688 326.557C86.3957 324.893 88.5713 323.76 90.9399 323.301C93.3085 322.842 95.7636 323.078 97.9947 323.978C100.226 324.878 102.133 326.403 103.475 328.359C104.816 330.315 105.532 332.615 105.532 334.967C105.529 338.12 104.241 341.144 101.952 343.374C99.6629 345.603 96.5593 346.858 93.322 346.861ZM93.322 324.772C91.252 324.772 89.2285 325.37 87.5074 326.49C85.7863 327.61 84.4448 329.203 83.6527 331.066C82.8605 332.928 82.6532 334.978 83.0571 336.956C83.4609 338.934 84.4577 340.75 85.9214 342.176C87.3851 343.602 89.25 344.573 91.2802 344.966C93.3104 345.359 95.4147 345.158 97.3272 344.386C99.2396 343.614 100.874 342.308 102.024 340.631C103.174 338.954 103.788 336.983 103.788 334.967C103.785 332.264 102.681 329.673 100.719 327.761C98.757 325.85 96.0968 324.775 93.322 324.772V324.772Z" fill="#34C002"/>
<path d="M122.976 369.8C120.561 369.8 118.2 369.102 116.192 367.795C114.184 366.488 112.619 364.631 111.695 362.457C110.771 360.284 110.529 357.892 111 355.585C111.471 353.278 112.634 351.159 114.342 349.495C116.049 347.832 118.225 346.699 120.594 346.24C122.962 345.781 125.417 346.017 127.648 346.917C129.88 347.817 131.787 349.342 133.128 351.298C134.47 353.254 135.186 355.553 135.186 357.906C135.182 361.059 133.895 364.082 131.606 366.312C129.317 368.542 126.213 369.796 122.976 369.8ZM122.976 347.711C120.906 347.711 118.882 348.309 117.161 349.429C115.44 350.549 114.099 352.141 113.306 354.004C112.514 355.867 112.307 357.917 112.711 359.895C113.115 361.872 114.111 363.689 115.575 365.115C117.039 366.54 118.904 367.511 120.934 367.905C122.964 368.298 125.069 368.096 126.981 367.325C128.893 366.553 130.528 365.246 131.678 363.57C132.828 361.893 133.442 359.922 133.442 357.906C133.439 355.203 132.335 352.611 130.373 350.7C128.411 348.789 125.751 347.714 122.976 347.711Z" fill="#34C002"/>
<path d="M84.6003 404.633C90.8622 404.633 95.9385 399.688 95.9385 393.588C95.9385 387.488 90.8622 382.544 84.6003 382.544C78.3384 382.544 73.2621 387.488 73.2621 393.588C73.2621 399.688 78.3384 404.633 84.6003 404.633Z" fill="#34C002"/>
<path d="M98.555 498.086C98.555 498.086 87.2168 470.9 121.231 450.51L98.555 498.086Z" fill="#34C002"/>
<path d="M84.6108 497.593C84.6108 497.593 79.4507 468.683 39.5123 468.93L84.6108 497.593Z" fill="#34C002"/>
<path d="M493.942 508.281H300.954C300.954 508.281 297.042 452.393 320.187 451.757C343.333 451.122 340.725 476.526 369.738 441.596C398.752 406.665 433.959 408.571 438.523 429.211C443.087 449.852 429.721 466.365 454.171 461.284C478.62 456.203 513.827 469.54 493.942 508.281Z" fill="#086972"/>
<path d="M394.19 508.294L393.539 508.269C395.058 471.472 402.969 447.83 409.338 434.476C416.254 419.976 422.918 414.107 422.985 414.049L423.418 414.524C423.352 414.581 416.766 420.392 409.906 434.794C403.572 448.091 395.703 471.636 394.19 508.294Z" fill="#34C002"/>
<path d="M464.037 508.37L463.411 508.193C470.948 482.994 488.696 467.084 488.875 466.926L489.313 467.396C489.136 467.553 471.52 483.35 464.037 508.37Z" fill="#34C002"/>
<path d="M331.35 508.325L330.704 508.238C333.261 490.274 328.642 476.336 324.317 467.808C319.634 458.573 314.291 453.53 314.237 453.48L314.688 453.021C314.743 453.072 320.169 458.193 324.902 467.526C329.267 476.135 333.93 490.201 331.35 508.325Z" fill="#34C002"/>
<path d="M520.134 509.131H280.138L280.083 508.339C279.945 506.369 276.883 459.9 292.34 443.319C295.796 439.613 299.958 437.667 304.712 437.537C314.787 437.258 321.119 440.934 326.226 443.885C335.852 449.447 342.211 453.122 365.331 425.286C390.378 395.13 417.402 388.643 432.938 392.25C442.975 394.582 449.894 401.17 451.919 410.327C453.836 418.998 453.225 427.146 452.735 433.692C452.209 440.697 451.795 446.229 454.748 448.737C457.213 450.829 462.134 451.019 470.233 449.335C486.707 445.912 509.693 448.841 521.23 463.362C527.438 471.174 532.328 485.375 520.375 508.661L520.134 509.131ZM281.776 507.432H519.054C527.961 489.829 528.239 474.959 519.851 464.402C509.267 451.081 487.062 447.575 470.597 450.997C461.798 452.826 456.555 452.524 453.602 450.018C449.991 446.953 450.434 441.046 450.994 433.569C451.477 427.13 452.078 419.118 450.214 410.685C448.336 402.193 441.892 396.077 432.533 393.903C417.494 390.408 391.224 396.814 366.687 426.355C342.619 455.332 335.369 451.143 325.336 445.346C320.166 442.359 314.296 438.972 304.761 439.235C300.5 439.352 296.756 441.111 293.632 444.462C279.739 459.363 281.436 501.15 281.776 507.432Z" fill="#34C002"/>
<path d="M269.5 546.513C418.341 546.513 539 532.439 539 515.078C539 497.717 418.341 483.644 269.5 483.644C120.659 483.644 0 497.717 0 515.078C0 532.439 120.659 546.513 269.5 546.513Z" fill="#3F3D56"/>
<path d="M275.426 103.86C275.426 103.86 261.953 99.1728 253.291 117.922C244.63 136.671 231.157 157.295 231.157 157.295L238.856 159.169C238.856 159.169 240.781 146.045 245.592 144.17L243.668 161.044C243.668 161.044 301.41 180.731 327.394 159.169L326.432 152.607C326.432 152.607 330.281 153.545 330.281 159.169L333.168 156.357C333.168 156.357 330.281 150.732 321.62 143.233C315.935 138.31 313.981 128.946 313.31 123.091C312.807 118.202 310.799 113.575 307.549 109.817C301.793 103.319 291.305 96.4126 275.426 103.86Z" fill="#2F2E41"/>
<path d="M261.214 177.37L247.26 160.378L236.794 125.545L276.913 83.9158C276.913 83.9158 285.635 51.6317 277.786 53.3309C269.936 55.0301 268.192 78.8183 268.192 78.8183L217.606 117.049C217.606 117.049 222.839 170.573 237.666 189.264L249.004 224.097L261.214 177.37Z" fill="#FFB9B9"/>
<path d="M299.59 177.37L313.545 160.378L324.011 125.545L283.891 83.9158C283.891 83.9158 275.169 51.6317 283.019 53.3309C290.868 55.0301 292.613 78.8183 292.613 78.8183L343.198 117.049C343.198 117.049 337.965 170.573 323.138 189.264L311.8 224.097L299.59 177.37Z" fill="#FFB9B9"/>
<path d="M280.402 162.927C292.926 162.927 303.078 153.037 303.078 140.838C303.078 128.638 292.926 118.749 280.402 118.749C267.878 118.749 257.726 128.638 257.726 140.838C257.726 153.037 267.878 162.927 280.402 162.927Z" fill="#FFB9B9"/>
<path d="M269.936 152.732C269.936 152.732 270.808 170.573 265.575 176.52C260.342 182.467 255.109 213.052 280.402 213.902C305.695 214.751 303.078 188.414 303.078 188.414L297.845 173.971C297.845 173.971 289.996 162.927 292.612 152.732H269.936Z" fill="#FFB9B9"/>
<path d="M246.388 350.684L265.139 356.206C265.139 356.206 280.402 347.286 280.402 355.782C280.402 364.278 275.169 375.322 276.913 382.968C278.658 390.615 282.146 409.305 276.913 409.305C271.68 409.305 261.214 376.172 261.214 376.172L243.771 366.826L246.388 350.684Z" fill="#FFB9B9"/>
<path d="M269.936 469.626L262.959 495.963C262.959 495.963 256.854 503.609 262.959 507.007C265.824 508.602 267.92 511.88 269.339 514.911C270.575 517.64 272.644 519.933 275.265 521.477C277.885 523.021 280.93 523.743 283.986 523.543C286.963 523.302 289.471 522.156 290.081 519.176C290.249 518.241 290.217 517.283 289.984 516.361C289.752 515.439 289.325 514.574 288.73 513.822C282.297 505.354 280.838 499.786 280.838 499.786L283.455 470.05L269.936 469.626Z" fill="#FFB9B9"/>
<path d="M253.048 144.761C253.048 144.761 260.747 134.449 267.483 132.574C274.22 130.699 275.182 121.325 275.182 121.325C275.182 121.325 292.505 140.074 303.091 141.011C313.677 141.948 304.053 118.512 304.053 118.512L284.806 113.825L266.521 115.7L252.085 125.074L253.048 144.761Z" fill="#2F2E41"/>
<path d="M238.538 286.116L235.049 292.913C235.049 292.913 150.449 319.25 157.426 343.888C164.404 368.525 203.651 361.729 203.651 361.729L247.26 369.375L251.621 350.684L221.095 343.038L273.425 324.347L275.169 411.004L268.192 473.024L285.635 474.723C285.635 474.723 304.823 417.801 302.206 394.013C302.206 394.013 334.477 297.161 316.161 282.718C297.845 268.275 238.538 286.116 238.538 286.116Z" fill="#2F2E41"/>
<path d="M281.425 188.426L267.816 172.405L258.598 176.52L249.004 206.256C249.004 206.256 241.155 220.698 250.748 235.991C250.748 235.991 252.493 246.186 249.876 248.735C247.26 251.283 246.388 267.425 246.388 267.425L235.049 288.665C235.049 288.665 299.59 299.709 318.778 284.417C318.778 284.417 308.709 248.258 314.814 237.213C320.919 226.169 321.792 209.237 314.814 201.591C307.837 193.945 300.462 173.972 300.462 173.972L296.238 171.34L281.425 188.426Z" fill="#086972"/>
<path d="M332.304 61.5816H323.939V53.4334H323.179V61.5816H314.814V62.322H323.179V70.4701H323.939V62.322H332.304V61.5816Z" fill="#34C002"/>
<path d="M252.805 44.5449H244.44V36.3967H243.68V44.5449H235.315V45.2852H243.68V53.4334H244.44V45.2852H252.805V44.5449Z" fill="#34C002"/>
<path d="M290.964 8.14818H282.6V0H281.839V8.14818H273.475V8.88854H281.839V17.0367H282.6V8.88854H290.964V8.14818Z" fill="#34C002"/>
</g>
<defs>
<clipPath id="clip0">
<rect width="539" height="572" fill="white"/>
</clipPath>
</defs>
</svg>
